<svg xmlns="http://www.w3.org/2000/svg" width="41" height="33" viewBox="0 0 41 33" fill="none"><path d="M33.0988 1.93162C33.2986 2.07418 33.5054 2.2058 33.7115 2.33913C34.4702 2.83596 35.1841 3.39513 35.903 3.94626C36.1046 4.09977 36.3078 4.25095 36.5115 4.40163C36.7562 4.58277 36.9962 4.76783 37.2331 4.95895C37.825 5.44688 37.825 5.44688 38.5367 5.6912C38.9297 5.64788 39.28 5.44343 39.5591 5.16388C39.6477 5.07692 39.6477 5.07692 39.8035 5.04031C40.0162 5.08554 40.1164 5.17982 40.2453 5.35177C40.3518 5.56276 40.3087 5.70495 40.2381 5.92308C39.9834 6.28819 39.7634 6.46827 39.328 6.56583C37.9183 6.67755 36.7276 5.79487 35.7121 4.94675C35.5838 4.84214 35.4554 4.73773 35.3267 4.63351C35.2701 4.58744 35.2134 4.54138 35.1551 4.49392C35.1008 4.45004 35.0465 4.40616 34.9906 4.36095C34.9031 4.28808 34.9031 4.28808 34.8138 4.21374C34.6767 4.08753 34.6767 4.08753 34.5314 4.10059C34.4623 4.30643 34.4453 4.48263 34.4289 4.6986C34.4207 4.80469 34.4207 4.80469 34.4123 4.91293C34.4083 4.96705 34.4043 5.02117 34.4002 5.07692C33.5631 4.4124 32.8178 3.53411 32.3012 2.60355C32.1613 2.81175 32.1588 2.83286 32.1782 3.06324C32.1895 3.63711 31.8815 4.19011 31.5141 4.6213C31.4708 4.6213 31.4275 4.6213 31.3829 4.6213C31.3693 4.552 31.3557 4.48269 31.3416 4.41129C31.149 3.48895 30.824 2.63478 30.1366 1.95266C30.0508 2.1229 30.0472 2.27585 30.0259 2.46524C29.9315 3.09688 29.6596 3.63695 29.2183 4.10059C29.175 4.07911 29.1317 4.05763 29.0871 4.0355C29.0518 3.89705 29.0228 3.75698 28.9969 3.61649C28.8451 2.88277 28.6649 2.37743 28.0432 1.92673C27.7313 1.72322 27.3979 1.57349 27.0537 1.43195C27.0752 1.47449 27.0966 1.51703 27.1188 1.56086C27.2023 1.80913 27.1991 2.04019 27.1931 2.29845C27.1925 2.34665 27.1919 2.39485 27.1913 2.44451C27.1898 2.56262 27.1874 2.68072 27.1849 2.79882C27.0637 2.84026 27.0637 2.84026 26.9225 2.8639C26.7626 2.72152 26.7626 2.72152 26.5945 2.53846C26.4028 2.35229 26.3021 2.28303 26.0331 2.24582C25.9492 2.24707 25.8652 2.24833 25.7787 2.24963C25.6949 2.24971 25.6111 2.2498 25.5248 2.24988C25.1404 2.29469 24.8741 2.43882 24.6267 2.73373C24.2454 3.43332 24.3059 4.16381 24.4989 4.91039C24.5627 5.08105 24.6405 5.19854 24.7579 5.33728C24.7865 5.29407 24.8151 5.25086 24.8445 5.20634C25.1571 4.74642 25.4282 4.35405 26.0042 4.23077C26.2016 4.22144 26.3972 4.22294 26.5945 4.23077C26.5945 4.49184 26.479 4.60459 26.3322 4.81657C26.0822 5.56074 26.5173 6.39782 26.8456 7.05908C26.9225 7.22485 26.9225 7.22485 26.9225 7.35503C26.9658 7.35503 27.0091 7.35503 27.0537 7.35503C27.0605 7.31207 27.0672 7.26912 27.0742 7.22485C27.1319 6.97502 27.2223 6.74769 27.3161 6.50888C27.5653 6.5447 27.7172 6.60885 27.9187 6.75703C29.0084 7.50352 30.3407 7.45227 31.6044 7.34876C31.7762 7.33472 31.948 7.32172 32.1198 7.30889C32.6103 7.27118 33.0967 7.22771 33.5831 7.15392C33.9742 7.09495 34.3535 7.075 34.7487 7.07841C34.8084 7.0779 34.8682 7.0774 34.9297 7.07688C35.3165 7.07798 35.6671 7.12396 36.0401 7.22485C36.1028 7.2418 36.1656 7.25875 36.2302 7.27621C36.7149 7.43855 37.0906 7.68287 37.4831 8.00592C37.5361 8.04947 37.589 8.09301 37.6435 8.13788C38.4011 8.82205 38.6158 9.636 38.6638 10.6095C38.6907 11.5442 38.2388 12.2141 37.6174 12.8747C37.4231 13.0778 37.2242 13.2761 37.024 13.4734C37.0889 13.5244 37.1539 13.5754 37.2208 13.628C38.24 14.505 38.772 15.8211 38.9918 17.1184C39.118 19.6567 38.5061 21.8991 37.6332 24.2634C37.6062 24.3369 37.5792 24.4104 37.5513 24.4861C37.515 24.5838 37.515 24.5838 37.4779 24.6834C37.3033 25.2056 37.2694 25.7808 37.4831 26.2959C37.6937 26.5443 37.934 26.7841 38.2689 26.8372C38.4171 26.8479 38.5645 26.8538 38.713 26.8573C39.2472 26.8748 39.2472 26.8748 39.3198 26.9468C39.3535 27.4732 39.2837 27.9314 38.9959 28.3828C38.7658 28.6292 38.4741 28.8121 38.2019 29.0093C37.855 29.2784 37.5344 29.5661 37.4606 30.012C37.4263 30.5367 37.6477 30.8254 37.9423 31.2426C38.4076 31.9668 38.4076 31.9668 38.3748 32.4221C38.3359 32.5444 38.3359 32.5444 38.1555 32.7071C37.7872 32.8758 37.4278 32.9288 37.024 32.8698C36.8948 32.7945 36.7881 32.708 36.6727 32.6136C36.5541 32.5242 36.5541 32.5242 36.3352 32.5403C36.1471 32.597 36.0305 32.6482 35.8679 32.7478C35.6465 32.8698 35.6465 32.8698 35.4743 32.878C35.2452 32.7703 35.1414 32.6152 34.9906 32.4142C34.8055 32.4919 34.6977 32.5726 34.5478 32.7112C34.3161 32.9116 34.1112 32.9195 33.8099 32.9349C33.7339 32.7089 33.7398 32.5209 33.7443 32.284C33.4713 32.3049 33.2865 32.3786 33.0555 32.5159C32.8147 32.6566 32.6518 32.7108 32.3668 32.6746C32.4391 32.4659 32.5329 32.2727 32.6415 32.0806C32.6654 32.0375 32.6893 31.9944 32.714 31.95C33.0152 31.6231 33.5675 31.5479 33.9859 31.4425C34.4217 31.3236 34.7749 31.1505 35.0121 30.7547C35.0556 30.6699 35.0976 30.5844 35.1382 30.4982C35.1602 30.4531 35.1823 30.408 35.205 30.3615C35.4064 29.931 35.5099 29.4993 35.5809 29.0296C35.4294 29.0511 35.2779 29.0726 35.1218 29.0947C35.1826 28.895 35.2394 28.7245 35.3554 28.5496C35.5613 28.1765 35.527 27.8206 35.4408 27.4202C35.3005 27.0536 35.0443 26.7837 34.7569 26.5237C34.7206 26.4907 34.6842 26.4577 34.6468 26.4237C33.9 25.7611 33.0644 25.2014 32.2173 24.6741C31.6826 24.3402 31.1636 24.0023 30.686 23.5906C29.5905 22.6519 28.4467 22.0858 26.9635 22.1302C26.5283 22.1715 26.1088 22.2676 25.6844 22.3702C25.6217 22.3853 25.559 22.4003 25.4945 22.4158C24.5701 22.6517 23.7011 23.0256 22.8372 23.4221C22.6919 23.4888 22.5464 23.5549 22.4009 23.6209C21.9254 23.8373 21.4542 24.0602 20.9873 24.2944C20.6154 24.4808 20.2427 24.656 19.8548 24.807C19.8011 24.8281 19.7474 24.8492 19.6921 24.8709C19.2869 25.0267 18.8767 25.162 18.4609 25.287C18.4056 25.3036 18.3503 25.3202 18.2934 25.3374C18.0483 25.4083 17.8675 25.4497 17.6082 25.4497C17.6477 25.2564 17.7065 25.1224 17.8195 24.9608C17.8492 24.9174 17.8789 24.874 17.9095 24.8293C17.9413 24.783 17.9731 24.7367 18.0058 24.689C18.6884 23.6655 19.0855 22.6025 19.3792 21.4142C19.3359 21.3927 19.2926 21.3713 19.248 21.3491C19.2314 21.4168 19.2147 21.4844 19.1975 21.5541C19.1391 21.7902 19.0793 22.0259 19.0187 22.2615C18.9922 22.3651 18.9662 22.4688 18.9405 22.5726C18.699 23.4654 18.1626 24.2653 17.6328 25.0147C17.101 25.7703 16.4802 26.8113 16.5264 27.7555C16.5846 28.0579 16.7119 28.2508 16.9522 28.4438C17.2074 28.5759 17.4667 28.6782 17.7394 28.7693C17.5309 29.4319 17.1691 29.7401 16.5895 30.0978C16.1167 30.3844 16.1167 30.3844 15.8417 30.845C15.8363 31.0837 15.8852 31.26 15.9601 31.4867C16.0748 31.8579 16.1694 32.2187 16.1651 32.6095C16.0376 32.736 15.8017 32.7012 15.6273 32.7104C15.5779 32.7132 15.5286 32.7159 15.4777 32.7187C14.8979 32.7479 14.3181 32.7518 13.7377 32.7517C13.5509 32.7519 13.3641 32.7531 13.1774 32.7543C13.0578 32.7545 12.9381 32.7546 12.8185 32.7547C12.7631 32.7551 12.7077 32.7556 12.6506 32.7561C12.5991 32.7559 12.5475 32.7557 12.4944 32.7555C12.4494 32.7556 12.4045 32.7557 12.3581 32.7558C12.2295 32.7397 12.2295 32.7397 12.0968 32.668C11.9502 32.5836 11.9502 32.5836 11.7252 32.699C11.6803 32.718 11.6354 32.7371 11.5891 32.7567C11.3458 32.8364 11.1052 32.8205 10.852 32.8048C10.852 32.7188 10.852 32.6329 10.852 32.5444C10.5805 32.6292 10.5805 32.6292 10.3231 32.7478C10.165 32.8187 10.0396 32.8142 9.86807 32.8048C9.87583 32.5507 9.96847 32.4213 10.1386 32.2434C10.6105 31.8118 10.9722 31.8131 11.5991 31.8254C12.1384 31.8364 12.1384 31.8364 12.623 31.6332C12.6692 31.5476 12.7122 31.4604 12.7542 31.3728C12.7901 31.3039 12.8259 31.235 12.8628 31.1641C12.9032 31.0858 12.9435 31.0076 12.9838 30.9294C13.004 30.8909 13.0242 30.8524 13.045 30.8128C13.6529 29.6259 13.2295 28.3258 12.8388 27.1329C12.7841 26.9688 12.7274 26.8058 12.6697 26.6427C12.4172 25.9018 12.2996 25.1511 12.1884 24.378C12.1705 24.2575 12.1493 24.1374 12.1262 24.0178C12.0803 23.6966 12.0736 23.3735 12.0614 23.0496C12.0585 22.9799 12.0557 22.9103 12.0528 22.8385C12.0459 22.6675 12.0392 22.4965 12.0327 22.3255C12.009 23.333 12.042 24.2993 12.2056 25.2944C12.2434 25.5407 12.2692 25.7878 12.2951 26.0355C11.4964 26.1092 10.6832 25.7083 10.0755 25.2233C8.80881 24.1619 8.06066 22.8105 7.90025 21.1539C7.82998 20.0786 7.93535 18.9203 8.29382 17.8994C8.30834 17.8575 8.32286 17.8155 8.33782 17.7723C8.59367 17.0445 8.91245 16.3924 9.34332 15.7515C9.36929 15.7126 9.39526 15.6736 9.42201 15.6335C9.76214 15.1291 10.1354 14.6725 10.556 14.2323C10.6894 14.0921 10.8168 13.95 10.9422 13.8029C11.085 13.6362 11.2358 13.4852 11.3975 13.3368C11.4365 13.3004 11.4755 13.2639 11.5156 13.2264C11.5936 13.1539 11.6727 13.0825 11.7528 13.0124C11.9622 12.8171 11.9622 12.8171 12.0598 12.5557C12.0628 12.3556 12.042 12.1933 11.963 12.0089C11.7637 11.8558 11.6232 11.8832 11.3767 11.9112C11.2395 11.958 11.1082 12.0102 10.9763 12.0702C10.852 12.1065 10.852 12.1065 10.5896 12.0414C10.5463 11.8481 10.503 11.6548 10.4584 11.4556C10.3935 11.4556 10.3285 11.4556 10.2616 11.4556C10.2468 11.4919 10.2319 11.5281 10.2165 11.5655C10.1039 11.7623 9.97525 11.8939 9.80248 12.0414C9.69425 12.0629 9.58602 12.0844 9.47451 12.1065C9.47451 11.7843 9.47451 11.4621 9.47451 11.1302C9.15212 11.4453 8.8378 11.755 8.55619 12.1065C8.5129 12.085 8.46961 12.0636 8.42501 12.0414C8.3943 11.8893 8.37078 11.7357 8.35121 11.5817C8.34022 11.4977 8.32923 11.4138 8.3179 11.3272C8.30995 11.2622 8.30201 11.1972 8.29382 11.1302C8.23564 11.1799 8.17747 11.2295 8.11753 11.2807C7.80531 11.5473 7.57912 11.6769 7.15822 11.6631C7.05308 11.6605 7.05308 11.6605 6.94581 11.6578C6.89279 11.6555 6.83978 11.6532 6.78516 11.6509C6.81052 11.6178 6.83589 11.5848 6.86202 11.5507C6.93333 11.4572 7.00411 11.3633 7.07444 11.269C7.15511 11.1616 7.23818 11.056 7.32221 10.9512C7.5592 10.5295 7.62762 10.0408 7.70347 9.56805C7.7657 9.57879 7.82794 9.58953 7.89205 9.6006C8.38542 9.66691 8.81187 9.6397 9.29823 9.52737C10.0461 9.37254 10.6218 9.51641 11.2865 9.85672C11.7203 10.0778 12.1319 10.1825 12.623 10.1539C12.688 10.1324 12.7529 10.1109 12.8198 10.0888C12.9376 9.85498 12.8795 9.6199 12.8198 9.37279C12.5602 8.90308 12.1204 8.52217 11.742 8.14538C11.6342 8.03765 11.5277 7.92876 11.4212 7.81981C11.3524 7.75092 11.2835 7.6821 11.2145 7.61335C11.183 7.58082 11.1515 7.54828 11.1191 7.51476C10.9666 7.36542 10.8818 7.29317 10.6653 7.26973C10.6187 7.2764 10.5721 7.28307 10.524 7.28994C10.4956 7.36646 10.4956 7.36646 10.4666 7.44453C10.3928 7.61539 10.3928 7.61539 10.2616 7.74557C10.0885 7.65965 9.9153 7.57373 9.73689 7.48521C9.73689 7.44225 9.73689 7.39929 9.73689 7.35503C9.69359 7.35503 9.6503 7.35503 9.6057 7.35503C9.50201 7.24044 9.4029 7.12174 9.30642 7.00111C9.25358 6.93542 9.20073 6.86972 9.14628 6.80203C9.10308 6.74825 9.05987 6.69447 9.01535 6.63906C8.99371 6.61758 8.97206 6.5961 8.94976 6.57397C8.94257 6.61399 8.93538 6.65401 8.92798 6.69525C8.91238 6.77416 8.91238 6.77416 8.89646 6.85466C8.88657 6.90677 8.87668 6.95887 8.86648 7.01255C8.8136 7.17503 8.75163 7.24596 8.62179 7.35503C8.58602 7.30301 8.55025 7.25099 8.5134 7.1974C8.46348 7.12516 8.41351 7.05295 8.36351 6.98077C8.33707 6.94257 8.31062 6.90437 8.28338 6.86501C8.1027 6.60592 7.91416 6.35532 7.71987 6.10614C7.2527 5.48967 6.9646 4.89427 6.99014 4.10873C7.07579 3.80517 7.18895 3.65348 7.46159 3.48759C7.75137 3.33483 7.96031 3.23372 8.29382 3.25444C8.30688 3.32378 8.30688 3.32378 8.32021 3.39453C8.33179 3.45435 8.34338 3.51418 8.35531 3.57581C8.36673 3.63547 8.37814 3.69512 8.3899 3.75659C8.41039 3.90226 8.41039 3.90226 8.4906 3.97041C8.94764 4.02006 9.24633 3.93195 9.62546 3.67141C9.83355 3.56381 9.95835 3.55977 10.1914 3.56768C10.2652 3.56919 10.3391 3.5707 10.4151 3.57225C10.5692 3.57732 10.7233 3.58241 10.8773 3.58751C11.2945 3.59603 11.6031 3.59685 11.9671 3.38462C12.3475 2.99855 12.4025 2.53733 12.4918 2.01775C12.936 2.07903 13.3789 2.14135 13.8201 2.22115C14.3389 2.30696 14.7828 2.36788 15.2468 2.08284C15.3198 2.05263 15.3198 2.05263 15.3944 2.02182C15.519 1.96114 15.519 1.96114 15.5666 1.83062C15.6795 1.61897 15.8229 1.54257 16.0339 1.43195C16.4019 1.39479 16.5828 1.4569 16.8784 1.67197C17.6044 2.21036 17.6044 2.21036 18.4609 2.34319C18.9183 2.10981 19.248 1.68301 19.576 1.30177C19.8937 1.34871 20.0288 1.54174 20.2306 1.77367C20.4122 2.01898 20.5355 2.27942 20.657 2.55804C20.7736 2.76352 20.8825 2.87079 21.0846 2.99408C21.3479 2.99726 21.5496 2.7939 21.7529 2.64423C22.0873 2.40501 22.3897 2.24894 22.7901 2.14793C22.8319 2.54577 22.7925 2.80808 22.5605 3.13901C22.4661 3.24972 22.3718 3.33596 22.2571 3.4253C22.0467 3.59777 21.9594 3.71474 21.8718 3.97041C21.8512 4.23593 21.8982 4.37592 22.0624 4.58596C22.2141 4.75325 22.3697 4.91557 22.5277 5.07692C22.8011 5.37474 22.9666 5.60869 23.0115 6.01664C22.9825 6.28943 22.8927 6.42521 22.7245 6.63906C22.519 6.55596 22.3922 6.4432 22.2407 6.28488C22.0506 6.10396 21.8381 5.94959 21.6294 5.79061C21.4876 5.67067 21.3859 5.55453 21.2814 5.40237C21.2165 5.43459 21.2165 5.43459 21.1502 5.46746C21.2 5.51688 21.2498 5.5663 21.3012 5.61721C21.4914 5.80595 21.6816 5.99469 21.8718 6.18343C21.9097 6.21792 21.9475 6.2524 21.9866 6.28793C22.3447 6.68441 22.2761 7.30398 22.2662 7.79797C22.2598 8.18831 22.2942 8.55456 22.3678 8.93903C22.3959 9.10877 22.4016 9.26623 22.3965 9.43787C21.9728 9.47528 21.7333 9.22735 21.4126 8.98225C21.368 8.94961 21.3233 8.91698 21.2773 8.88335C20.7584 8.48052 20.6026 7.85105 20.3939 7.25422C20.3747 7.20098 20.3556 7.14775 20.3359 7.0929C20.3191 7.04474 20.3022 6.99659 20.2848 6.94697C20.2403 6.8216 20.2403 6.8216 20.1007 6.76923C20.1015 6.84609 20.1023 6.92294 20.103 7.00213C20.1037 7.10349 20.1043 7.20485 20.1048 7.30622C20.1054 7.35681 20.1059 7.4074 20.1065 7.45953C20.1067 7.50861 20.1069 7.5577 20.1071 7.60827C20.1075 7.65326 20.1078 7.69826 20.1082 7.74461C20.1004 7.88224 20.0729 8.00373 20.0351 8.1361C19.3542 8.02751 19.0019 7.58669 18.57 7.08298C18.4685 6.95856 18.4685 6.95856 18.3297 6.89941C18.3202 6.96922 18.3108 7.03903 18.301 7.11095C18.2748 7.28452 18.246 7.44707 18.1985 7.61539C17.9861 7.52138 17.8299 7.40335 17.6574 7.24926C17.611 7.20815 17.5647 7.16704 17.5169 7.12468C17.4821 7.0933 17.4473 7.06192 17.4114 7.02959C17.2864 7.23864 17.2656 7.3901 17.272 7.63166C17.2732 7.68972 17.2744 7.74778 17.2756 7.8076C17.2771 7.85157 17.2786 7.89553 17.2802 7.94083C17.0049 7.82712 16.9006 7.66494 16.7396 7.4247C16.5924 7.25274 16.4229 7.14804 16.2307 7.02959C16.2489 7.09268 16.267 7.15578 16.2858 7.22079C16.4609 7.85452 16.5411 8.45617 16.5587 9.11243C16.1396 9.09198 15.9598 8.96706 15.6772 8.68529C15.6418 8.65143 15.6063 8.61757 15.5698 8.58269C15.4831 8.49977 15.3976 8.41568 15.3124 8.33136C15.2474 8.36358 15.2474 8.36358 15.1812 8.39645C15.1819 8.43648 15.1827 8.4765 15.1835 8.51773C15.1841 8.57034 15.1847 8.62295 15.1853 8.67715C15.186 8.72925 15.1868 8.78136 15.1876 8.83504C15.1812 8.98225 15.1812 8.98225 15.1156 9.17752C14.8615 9.10304 14.6563 9.03216 14.4597 8.85208C14.4597 8.80912 14.4597 8.76616 14.4597 8.7219C14.4164 8.7219 14.3731 8.7219 14.3285 8.7219C14.2165 8.61609 14.107 8.50768 14.0005 8.39645C14.0005 8.58103 14.0956 8.67326 14.2126 8.80911C14.4842 9.06249 14.8286 9.25617 15.1812 9.37279C15.2245 9.13651 15.2678 8.90024 15.3124 8.65681C15.6694 8.79851 15.6694 8.79851 15.8535 8.98632C16.0351 9.14939 16.1382 9.19723 16.3824 9.20193C16.801 9.22235 17.0453 9.49841 17.3458 9.76332C17.4626 9.86041 17.5801 9.95672 17.6984 10.0521C17.7503 10.095 17.8022 10.1379 17.8557 10.1821C17.9971 10.2808 18.0952 10.3219 18.2641 10.3491C18.2721 10.302 18.28 10.2548 18.2882 10.2062C18.3461 9.87495 18.4061 9.55836 18.5265 9.24261C18.7807 9.32668 18.8281 9.43584 18.9774 9.65348C19.1541 9.911 19.3222 10.0994 19.576 10.284C19.7087 10.0865 19.7282 10.011 19.7482 9.78366C19.7531 9.73105 19.758 9.67844 19.763 9.62424C19.7678 9.56421 19.7678 9.56421 19.7728 9.50296C19.8377 9.50296 19.9026 9.50296 19.9695 9.50296C20.0808 9.62805 20.1788 9.75079 20.277 9.88536C20.3359 9.96335 20.3949 10.0413 20.4538 10.1193C20.5111 10.1959 20.5683 10.2725 20.6255 10.3491C20.8814 10.6902 21.1155 10.987 21.4659 11.236C21.7545 11.4454 21.8614 11.6332 21.9374 11.9763C21.9597 12.073 21.9597 12.073 21.9825 12.1716C22.0315 12.6383 22.0165 12.9257 21.8062 13.3432C21.9685 13.2788 21.9685 13.2788 22.1341 13.213C22.1816 13.2812 22.1816 13.2812 22.23 13.3508C22.2714 13.4101 22.3128 13.4693 22.3555 13.5303C22.3966 13.5892 22.4377 13.6481 22.4801 13.7088C22.5887 13.8662 22.5887 13.8662 22.7245 13.9941C22.7245 14.0585 22.7245 14.123 22.7245 14.1894C22.0585 14.2951 21.473 14.1946 20.8223 14.0592C20.8535 14.1191 20.8535 14.1191 20.8853 14.1802C20.9506 14.3137 20.9878 14.4353 21.019 14.5799C20.7115 14.5437 20.4812 14.4574 20.2073 14.3155C20.1378 14.2798 20.0683 14.2441 19.9967 14.2074C19.9445 14.18 19.8922 14.1525 19.8384 14.1243C19.8755 14.1902 19.9126 14.2562 19.9508 14.3241C19.9995 14.4121 20.0481 14.5 20.0966 14.588C20.1211 14.6313 20.1456 14.6746 20.1708 14.7192C20.3123 14.9772 20.3993 15.1939 20.4287 15.4911C20.0515 15.4342 20.0515 15.4342 19.904 15.361C19.904 15.318 19.904 15.275 19.904 15.2308C19.8684 15.2142 19.8329 15.1976 19.7963 15.1804C19.6117 15.0852 19.4394 14.9763 19.2644 14.8647C19.1998 14.8235 19.1352 14.7824 19.0687 14.7401C19.0196 14.7087 18.9706 14.6773 18.92 14.645C18.9152 14.7509 18.9152 14.7509 18.9103 14.8591C18.9054 14.9531 18.9004 15.0472 18.8954 15.1413C18.8924 15.2109 18.8924 15.2109 18.8893 15.2819C18.8735 15.5674 18.8286 15.8074 18.7233 16.0769C18.2091 15.8537 17.7708 15.4097 17.5426 14.9053C17.5426 14.8624 17.5426 14.8194 17.5426 14.7752C17.4993 14.7752 17.456 14.7752 17.4114 14.7752C17.6525 15.3297 17.9556 15.9239 18.5265 16.2071C18.5265 16.2501 18.5265 16.293 18.5265 16.3373C18.6131 16.3802 18.6996 16.4232 18.7889 16.4675C18.9317 15.9949 18.9592 15.5267 18.9856 15.0355C19.301 15.0355 19.3923 15.1147 19.6498 15.2877C20.0076 15.5199 20.3294 15.6481 20.7567 15.6864C20.7235 15.6229 20.6904 15.5594 20.6562 15.4939C20.6132 15.4103 20.5701 15.3266 20.5271 15.243C20.5052 15.2012 20.4833 15.1593 20.4607 15.1162C20.363 14.9252 20.2975 14.7972 20.2975 14.5799C20.5472 14.6272 20.7931 14.6849 21.0395 14.7467C21.1447 14.773 21.1447 14.773 21.252 14.7998C21.3315 14.8198 21.3315 14.8198 21.4126 14.8402C21.3693 14.7785 21.326 14.7167 21.2814 14.6531C21.1502 14.4497 21.1502 14.4497 21.1502 14.3195C21.778 14.341 22.4057 14.3625 23.0525 14.3846C22.7728 13.9186 22.7728 13.9186 22.4621 13.4734C22.4838 13.4304 22.5054 13.3875 22.5277 13.3432C22.6076 13.3612 22.6875 13.3793 22.7698 13.3979C22.8763 13.4217 22.9829 13.4455 23.0894 13.4693C23.1418 13.4812 23.1943 13.4931 23.2483 13.5053C25.4785 14.0021 27.7546 13.4336 29.9277 12.9212C30.2607 12.8431 30.5943 12.7678 30.9278 12.6923C30.9827 12.6796 31.0376 12.6669 31.0941 12.6538C31.1442 12.6424 31.1942 12.6309 31.2458 12.6191C31.2872 12.6095 31.3285 12.6 31.3711 12.5901C31.9003 12.4866 32.42 12.4843 32.9572 12.4848C33.0035 12.4848 33.0498 12.4847 33.0976 12.4847C33.8235 12.4848 34.5385 12.5217 35.2606 12.5988C35.9183 12.6835 35.9183 12.6835 36.5156 12.4645C36.9757 12.0706 37.3603 11.5508 37.4325 10.9384C37.4753 10.3577 37.4586 9.82148 37.1552 9.3077C37.1281 9.26189 37.1011 9.21607 37.0732 9.16887C36.6565 8.55101 35.9843 8.2068 35.2704 8.02963C34.6448 7.92985 34.0236 8.02715 33.4081 8.14423C33.329 8.15866 33.2498 8.17308 33.1683 8.18793C32.6965 8.27568 32.2288 8.37579 31.7614 8.48414C31.0819 8.64151 30.4076 8.77051 29.7144 8.85208C29.6433 8.86098 29.5723 8.86988 29.4991 8.87906C28.6955 8.96392 28.0019 8.77168 27.2423 8.52663C25.8119 8.06806 25.8119 8.06806 24.3643 8.33136C24.3189 8.36585 24.2735 8.40033 24.2267 8.43586C24.102 8.52663 24.102 8.52663 23.9052 8.52663C23.5783 7.91561 23.521 7.365 23.671 6.69118C23.7741 6.18889 23.7931 5.94099 23.5567 5.4878C23.3364 5.02962 23.2229 4.61028 23.1837 4.10059C23.1783 4.05495 23.173 4.00931 23.1675 3.96228C23.113 3.17611 23.5573 2.42719 24.0484 1.84918C26.5392 -0.784772 30.4587 0.00827907 33.0988 1.93162ZM21.0764 3.65717C20.4141 4.07416 19.5806 4.205 18.8201 4.33859C18.7666 4.34823 18.7132 4.35788 18.6582 4.36781C18.6106 4.37597 18.563 4.38412 18.514 4.39252C18.3801 4.42001 18.3801 4.42001 18.2641 4.55621C18.3037 4.59003 18.3432 4.62384 18.384 4.65868C18.9352 5.13589 18.9352 5.13589 19.1168 5.40237C19.1168 5.44533 19.1168 5.48829 19.1168 5.53255C18.287 5.56758 17.5572 5.48257 16.7554 5.27219C16.612 5.23545 16.4685 5.19882 16.325 5.16235C16.2644 5.14692 16.2037 5.13148 16.1413 5.11557C15.8876 5.05889 15.6369 5.03325 15.378 5.01184C15.3551 5.20705 15.3551 5.20705 15.4761 5.30702C15.5181 5.33983 15.5602 5.37264 15.6034 5.40644C15.8312 5.58586 15.8312 5.58586 15.9027 5.72781C14.9629 5.82509 14.2656 5.73719 13.3897 5.35355C13.0628 5.21388 12.7804 5.13019 12.4262 5.2071C12.1919 5.33307 12.1195 5.41244 12.0245 5.65866C12.0144 5.86898 12.0144 5.86898 12.168 6.04105C12.382 6.19921 12.4885 6.24852 12.7542 6.24852C12.9694 6.16228 13.115 6.0858 13.279 5.92308C13.279 5.83716 13.279 5.75124 13.279 5.66272C13.2357 5.66272 13.1924 5.66272 13.1478 5.66272C13.1221 5.70434 13.0964 5.74596 13.0699 5.78883C12.951 5.92308 12.951 5.92308 12.7255 5.98817C12.4918 5.98817 12.4918 5.98817 12.3319 5.87426C12.2295 5.72781 12.2295 5.72781 12.2295 5.53255C12.7425 5.36284 13.1737 5.49977 13.652 5.6912C13.7602 5.73337 13.8684 5.77533 13.9767 5.81706C14.0474 5.84518 14.0474 5.84518 14.1196 5.87387C14.391 5.96707 14.6454 5.99645 14.9316 5.99681C14.9948 5.9969 15.0579 5.99698 15.123 5.99707C15.2208 5.99669 15.2208 5.99669 15.3206 5.9963C15.3863 5.99656 15.452 5.99681 15.5197 5.99707C15.5827 5.99698 15.6456 5.9969 15.7105 5.99681C15.7679 5.99674 15.8252 5.99667 15.8843 5.99659C16.0447 5.99406 16.0447 5.99406 16.2307 5.92308C16.1929 5.70577 16.1264 5.61775 15.9683 5.46746C15.9358 5.3708 15.9358 5.3708 15.9027 5.27219C16.0071 5.29974 16.1116 5.32729 16.216 5.35487C16.3056 5.37856 16.3953 5.40221 16.485 5.42584C16.7507 5.49599 17.0156 5.5684 17.2802 5.64238C18.1251 5.86826 18.9368 5.85287 19.7728 5.59763C19.5887 5.4638 19.5887 5.4638 19.4079 5.4105C19.2111 5.32037 19.2012 5.27049 19.1168 5.07692C19.0622 4.99692 19.006 4.91791 18.9487 4.83971C18.9189 4.79878 18.889 4.75785 18.8583 4.71568C18.8354 4.68453 18.8125 4.65339 18.7889 4.6213C18.8394 4.60886 18.89 4.59643 18.9421 4.58361C19.174 4.52621 19.4057 4.46799 19.6375 4.40976C19.717 4.39021 19.7965 4.37067 19.8785 4.35052C20.7069 4.15822 20.7069 4.15822 21.4126 3.71006C21.4126 3.64562 21.4126 3.58118 21.4126 3.51479C21.2576 3.50235 21.2576 3.50235 21.0764 3.65717ZM14.6564 10.4793C14.5685 10.6698 14.5685 10.6698 14.6567 10.8319C15.0525 11.591 15.0525 11.591 15.7059 12.1065C15.7709 12.1065 15.8358 12.1065 15.9027 12.1065C15.9162 12.0532 15.9296 11.9998 15.9435 11.9448C16.0173 11.6516 16.0912 11.3583 16.1651 11.0651C16.2084 11.0651 16.2517 11.0651 16.2963 11.0651C16.3143 11.113 16.3323 11.1609 16.3509 11.2103C16.5535 11.687 16.9028 12.1416 17.2802 12.497C17.3776 12.5293 17.3776 12.5293 17.477 12.5621C17.5211 12.447 17.5647 12.3317 17.6082 12.2164C17.6447 12.1201 17.6447 12.1201 17.682 12.0218C17.7495 11.846 17.7495 11.846 17.7394 11.6509C17.8043 11.6509 17.8692 11.6509 17.9361 11.6509C17.9519 11.6882 17.9678 11.7256 17.984 11.764C18.0622 11.9187 18.0622 11.9187 18.2018 12.0402C18.5867 12.4128 18.5867 12.4128 18.597 12.7004C18.5652 13.0312 18.4849 13.3492 18.3953 13.6686C17.8787 13.4282 17.4094 13.1618 16.9522 12.8225C16.8873 12.8547 16.8873 12.8547 16.821 12.8876C16.8535 13.3386 16.8535 13.3386 16.8866 13.7988C16.0778 13.4421 15.4942 12.8239 14.8848 12.205C14.7659 12.0845 14.6458 11.9652 14.5252 11.8462C14.5039 11.905 14.4825 11.9638 14.4604 12.0244C14.4318 12.1012 14.4031 12.1779 14.3736 12.257C14.3454 12.3333 14.3172 12.4096 14.2882 12.4881C14.2061 12.6725 14.1464 12.7564 14.0005 12.8876C14.0005 12.9305 14.0005 12.9735 14.0005 13.0178C13.8037 12.8225 13.6069 12.6272 13.4101 12.432C13.3119 12.6514 13.279 12.7707 13.279 13.0178C13.0822 12.9527 13.0822 12.9527 12.951 12.7574C12.8536 12.7896 12.8536 12.7896 12.7542 12.8225C12.7934 12.895 12.8327 12.9675 12.8731 13.0422C12.8952 13.0829 12.9172 13.1237 12.94 13.1657C13.0197 13.298 13.0197 13.298 13.2134 13.4083C13.3375 13.253 13.4117 13.1433 13.4757 12.9527C13.519 12.9527 13.5623 12.9527 13.6069 12.9527C13.7194 13.0802 13.8289 13.2103 13.9349 13.3432C14.2521 13.0386 14.492 12.7531 14.5252 12.3018C14.722 12.3018 14.722 12.3018 14.8186 12.3928C14.853 12.4353 14.8875 12.4777 14.9229 12.5215C15.3628 13.0385 15.8029 13.4793 16.3906 13.8288C16.6092 13.9591 16.8123 14.1049 17.0178 14.2544C17.0779 13.9039 17.0907 13.5683 17.0834 13.213C17.1271 13.2414 17.1708 13.2697 17.2159 13.299C17.6428 13.5727 18.077 13.8237 18.5265 14.0592C18.6479 13.647 18.7482 13.2505 18.7889 12.8225C18.8354 12.8601 18.882 12.8977 18.93 12.9364C18.9903 12.9847 19.0506 13.0331 19.1127 13.0828C19.1728 13.1312 19.233 13.1795 19.2949 13.2293C19.422 13.3498 19.422 13.3498 19.5104 13.3432C19.5089 13.2976 19.5073 13.2519 19.5058 13.2049C19.4983 12.8138 19.5165 12.4788 19.6416 12.1065C19.7065 12.0743 19.7065 12.0743 19.7728 12.0414C19.7861 12.0757 19.7995 12.1101 19.8132 12.1454C19.9439 12.3707 20.1204 12.5387 20.3057 12.7208C20.3441 12.7585 20.3824 12.7963 20.4219 12.8351C20.8808 13.2898 20.8808 13.2898 21.4782 13.4937C21.5431 13.4837 21.5431 13.4837 21.6094 13.4734C21.4064 13.2441 21.2022 13.0962 20.9371 12.9405C20.5404 12.6975 20.2631 12.3969 19.9695 12.0414C19.9334 11.9991 19.8973 11.9567 19.8601 11.913C19.7864 11.8264 19.7138 11.7388 19.6416 11.6509C19.4065 11.8841 19.3293 12.2519 19.3011 12.5761C19.3013 12.68 19.3068 12.7839 19.3136 12.8876C18.7111 12.3931 18.2387 11.8396 17.8049 11.1953C17.6877 11.3697 17.6126 11.5228 17.5344 11.716C17.5112 11.7724 17.488 11.8287 17.4642 11.8868C17.4009 12.045 17.4009 12.045 17.4114 12.2367C17.1785 12.1597 17.158 12.1107 17.0347 11.9085C17.0013 11.8546 16.9679 11.8008 16.9335 11.7453C16.8991 11.6887 16.8647 11.632 16.8292 11.5736C16.6059 11.2085 16.3856 10.8644 16.0995 10.5444C15.9721 10.734 15.9392 10.8311 15.8986 11.0488C15.8879 11.106 15.8771 11.1633 15.8661 11.2222C15.8304 11.4298 15.799 11.6373 15.7715 11.8462C15.3995 11.6865 15.2593 11.3865 15.0664 11.0529C15.0027 10.9447 14.9388 10.8367 14.8747 10.7287C14.8469 10.6809 14.8191 10.633 14.7905 10.5837C14.7679 10.5493 14.7453 10.5148 14.722 10.4793C14.7004 10.4793 14.6787 10.4793 14.6564 10.4793ZM11.9015 14.1243C11.6132 14.3512 11.5212 14.6247 11.4423 14.9704C11.4288 15.1269 11.4322 15.2687 11.4423 15.426C11.5194 15.3817 11.5194 15.3817 11.5981 15.3365C11.8907 15.2064 12.1772 15.1531 12.4918 15.1006C12.4714 15.1385 12.4509 15.1764 12.4298 15.2155C12.2027 15.6901 12.2318 16.0299 12.3606 16.5326C12.5504 16.4464 12.6942 16.3501 12.8485 16.2112C12.9781 16.0978 13.0927 16.0057 13.2421 15.9183C13.4986 15.7631 13.7127 15.5606 13.9349 15.361C13.9471 15.4173 13.9593 15.4737 13.9718 15.5318C14.0931 15.8145 14.2669 15.976 14.5252 16.142C14.6652 16.1865 14.6652 16.1865 14.7876 16.2071C14.8035 16.16 14.8194 16.1128 14.8358 16.0642C14.961 15.7057 15.0898 15.4082 15.3124 15.1006C15.3124 15.0576 15.3124 15.0147 15.3124 14.9704C15.3773 14.9704 15.4422 14.9704 15.5092 14.9704C15.5119 15.0335 15.5146 15.0966 15.5174 15.1616C15.5625 15.4979 15.7693 15.7456 15.9683 16.0118C16.0695 15.8613 16.1456 15.7264 16.2225 15.5644C16.3055 15.3959 16.3809 15.2725 16.5013 15.125C16.6402 14.9504 16.6956 14.7928 16.7554 14.5799C16.6905 14.5584 16.6256 14.5369 16.5587 14.5148C16.5388 14.558 16.5189 14.6012 16.4984 14.6457C16.3362 14.9851 16.191 15.2459 15.9027 15.4911C15.7268 15.2909 15.6783 15.1528 15.6608 14.8891C15.6565 14.831 15.6522 14.7729 15.6478 14.7131C15.6441 14.6472 15.6441 14.6472 15.6403 14.5799C15.5538 14.5799 15.4672 14.5799 15.378 14.5799C15.2503 14.7328 15.1445 14.8774 15.0377 15.0436C15.0081 15.0869 14.9786 15.1302 14.9481 15.1748C14.7793 15.431 14.6814 15.6347 14.6564 15.9468C14.4211 15.8395 14.3366 15.7668 14.2137 15.5359C14.141 15.323 14.0934 15.1279 14.0661 14.9053C13.7507 15.1672 13.7507 15.1672 13.4593 15.4545C13.1879 15.7056 12.8737 15.8862 12.5574 16.0769C12.5029 15.8238 12.4758 15.6568 12.582 15.4179C12.6557 15.2479 12.7129 15.0861 12.7542 14.9053C12.3745 14.8919 12.0701 14.9319 11.7047 15.0355C11.7359 14.7101 11.838 14.5162 12.0327 14.2544C11.9894 14.2115 11.9461 14.1685 11.9015 14.1243Z" fill="#0071BB"></path><path d="M3.70117 0C3.74446 0.0214793 3.78775 0.0429586 3.83236 0.0650888C3.78437 1.19005 3.73334 2.31467 3.66786 3.43877C3.65878 3.59608 3.64971 3.75339 3.64063 3.91069C3.6317 4.06428 3.6225 4.21785 3.6133 4.37142C3.58614 4.83501 3.56692 5.29588 3.57228 5.76041C3.57009 5.97759 3.55936 6.19248 3.54648 6.4092C3.49554 7.29178 3.49944 8.17294 3.50547 9.05665C3.50733 9.33409 3.50842 9.61153 3.50937 9.88897C3.51215 10.6766 3.51532 11.4643 3.52058 12.252C3.5235 12.6897 3.52548 13.1274 3.52641 13.5651C3.52694 13.7957 3.52795 14.0263 3.53012 14.2569C3.53254 14.5128 3.53292 14.7687 3.53313 15.0246C3.5347 15.1383 3.5347 15.1383 3.5363 15.2543C3.53433 15.7709 3.53433 15.7709 3.37318 16.0169C3.3299 16.0582 3.28661 16.0995 3.24201 16.142C3.20872 16.3339 3.20872 16.3339 3.21331 16.5326C3.19796 16.7909 3.18917 16.9027 3.04933 17.1265C2.72712 17.3222 2.40859 17.4116 2.03032 17.354C1.70645 17.2602 1.47199 17.1375 1.27419 16.858C1.25156 16.7475 1.23269 16.6361 1.2168 16.5244C1.19631 16.3543 1.19631 16.3543 1.14301 16.2071C0.913233 16.0954 0.913233 16.0954 0.683847 16.0118C0.606748 15.6771 0.605 15.3347 0.597499 14.9925C0.596127 14.9393 0.594755 14.8861 0.593341 14.8312C0.589022 14.6593 0.585142 14.4874 0.581357 14.3155C0.580011 14.2565 0.578665 14.1975 0.577279 14.1368C0.569426 13.7905 0.562209 13.4443 0.555518 13.098C0.553096 12.9749 0.550438 12.8517 0.547727 12.7286C0.494937 10.1658 0.668617 7.43636 1.47927 4.98981C1.53613 4.8179 1.58953 4.64522 1.64239 4.47206C2.12407 2.92955 2.81394 1.35753 3.70117 0Z" fill="#0071BB"></path><path d="M29.6107 22.9113C29.8436 23.0715 30.0556 23.2446 30.2666 23.432C30.3265 23.4773 30.3864 23.5226 30.448 23.5693C30.4964 23.6099 30.5448 23.6505 30.5946 23.6923C30.5946 23.7353 30.5946 23.7782 30.5946 23.8225C30.6407 23.8388 30.6868 23.855 30.7343 23.8718C30.9459 23.9627 31.1208 24.0758 31.311 24.2052C31.3647 24.2415 31.3647 24.2415 31.4194 24.2786C31.5328 24.3554 31.6458 24.4327 31.7589 24.51C31.8358 24.5622 31.9128 24.6144 31.9897 24.6665C32.5502 25.0471 32.5502 25.0471 32.628 25.1243C32.6513 25.5003 32.6092 25.7567 32.4599 26.1087C32.4426 26.1502 32.4253 26.1917 32.4075 26.2345C32.3152 26.4512 32.2153 26.6622 32.1061 26.871C32.0851 26.9111 32.0641 26.9512 32.0425 26.9925C31.9835 27.1033 31.9228 27.2132 31.8619 27.3231C31.7625 27.5635 31.75 27.7306 31.7753 27.9882C31.9948 28.3353 32.2526 28.4819 32.628 28.6391C32.5712 28.7022 32.5144 28.7653 32.4558 28.8303C32.0194 29.3382 31.6813 29.8131 31.6961 30.5081C31.7123 30.6853 31.7456 30.8563 31.7794 31.0311C31.8609 31.4871 31.9004 31.9784 31.681 32.4002C31.5785 32.5444 31.5785 32.5444 31.4596 32.6095C31.3161 32.6095 31.3161 32.6095 31.1316 32.5159C30.8775 32.3923 30.7453 32.3887 30.4634 32.4142C30.2637 32.4867 30.0778 32.581 29.8895 32.6786C29.7917 32.7288 29.6937 32.7784 29.5953 32.8274C29.5525 32.8495 29.5098 32.8717 29.4657 32.8945C29.3483 32.9349 29.3483 32.9349 29.1515 32.8698C29.1136 32.8162 29.0758 32.7625 29.0367 32.7071C28.9002 32.5276 28.9002 32.5276 28.6796 32.4852C28.3746 32.478 28.206 32.5795 27.9626 32.7437C27.813 32.8444 27.6764 32.9214 27.5117 33C27.2387 32.9388 27.07 32.7829 26.8557 32.6095C26.6272 32.5339 26.4988 32.5692 26.2654 32.6095C26.1998 32.5444 26.1998 32.5444 26.1875 32.2963C26.1909 32.0869 26.1984 31.9344 26.331 31.7633C26.7312 31.4731 27.3877 31.5637 27.8586 31.5821C28.3004 31.5903 28.6335 31.4917 29.0121 31.2548C29.3457 30.9141 29.3057 30.4597 29.3032 30.0141C29.3029 29.9459 29.3026 29.8778 29.3022 29.8076C29.2877 28.8127 29.2663 27.7 28.758 26.8166C28.7257 26.7595 28.6934 26.7023 28.6601 26.6434C28.2975 26.0452 27.8477 25.4908 27.382 24.9684C26.6611 24.1585 26.3599 23.4063 26.3966 22.3255C27.4667 22.0087 28.6845 22.3661 29.6107 22.9113Z" fill="#0071BB"></path><path d="M4.09514 17.9785C4.24364 18.0362 4.32705 18.1009 4.44386 18.2086C4.65991 18.4034 4.8783 18.5946 5.09966 18.7835C5.45349 19.0854 5.80327 19.3905 6.1452 19.7056C6.39008 19.9307 6.63938 20.145 6.89953 20.3525C7.80952 21.0801 7.80952 21.0801 7.85552 21.4595C7.86338 21.5331 7.87124 21.6068 7.87934 21.6827C7.95619 22.237 8.14009 22.7233 8.359 23.2367C8.38394 23.2964 8.40889 23.356 8.43459 23.4175C8.77208 24.1528 9.34418 24.7731 9.93326 25.3195C9.78459 25.5825 9.63714 25.7459 9.3921 25.9257C9.04719 26.1795 8.68505 26.4949 8.49019 26.8817C8.25169 26.7781 8.07034 26.6318 7.87114 26.4667C7.60799 26.2491 7.60799 26.2491 7.33871 26.0391C7.159 25.8892 7.0184 25.7283 6.87084 25.5474C6.82053 25.4863 6.77022 25.4252 6.71838 25.3623C6.61088 25.2197 6.52879 25.091 6.45678 24.929C6.41348 24.929 6.37019 24.929 6.32559 24.929C6.22617 24.8311 6.22617 24.8311 6.11241 24.6971C6.07106 24.6496 6.02971 24.6022 5.98711 24.5532C5.91414 24.4656 5.84321 24.3761 5.77649 24.2837C5.49425 23.9064 5.12373 23.7798 4.68574 23.6272C4.6903 23.5549 4.69487 23.4826 4.69957 23.4081C4.72656 22.8008 4.71948 22.3467 4.29217 21.8698C4.12641 21.7044 3.95322 21.5569 3.76742 21.4142C3.70248 21.3619 3.63755 21.3095 3.57064 21.2556C3.52735 21.222 3.48406 21.1884 3.43945 21.1539C3.48275 21.0679 3.52604 20.982 3.57064 20.8935C3.61393 20.8935 3.65723 20.8935 3.70183 20.8935C3.71448 20.5795 3.68592 20.3405 3.57064 20.0473C3.62476 20.0004 3.67887 19.9534 3.73463 19.905C3.91146 19.7413 3.91146 19.7413 3.92321 19.5551C3.90254 19.3984 3.90254 19.3984 3.85761 19.2581C3.8495 19.2179 3.84138 19.1776 3.83302 19.1361C3.87631 19.0717 3.9196 19.0072 3.9642 18.9408C3.96917 18.7426 3.96917 18.7426 3.89861 18.5503C3.73598 18.435 3.73598 18.435 3.57064 18.355C3.57064 18.3121 3.57064 18.2691 3.57064 18.2249C3.90808 17.9585 3.90808 17.9585 4.09514 17.9785Z" fill="#0071BB"></path><path d="M1.99604 21.9349C2.2125 21.9349 2.42896 21.9349 2.65198 21.9349C2.6776 22.0811 2.70322 22.2273 2.72885 22.3735C2.79886 22.5633 2.86888 22.6176 3.04554 22.716C3.22286 22.7623 3.22286 22.7623 3.41041 22.7852C3.65038 22.8191 3.75787 22.8401 3.96386 22.9764C3.98846 23.1391 3.98846 23.1391 3.96386 23.3018C3.76708 23.432 3.76708 23.432 3.59489 23.4116C3.43911 23.3669 3.43911 23.3669 3.37351 23.3018C3.22048 23.2991 3.06738 23.299 2.91435 23.3018C2.75866 23.6108 2.81514 24.0395 2.91435 24.3595C3.06823 24.5694 3.24188 24.7245 3.44321 24.8891C3.55811 24.984 3.66323 25.0828 3.76708 25.1894C3.66501 25.438 3.50758 25.5969 3.30792 25.7752C3.26463 25.7752 3.22133 25.7752 3.17673 25.7752C3.04994 26.1666 3.0202 26.4315 3.17673 26.8166C3.38528 27.1935 3.64637 27.4607 4.05405 27.618C4.11087 27.6328 4.16769 27.6475 4.22623 27.6628C4.23841 27.5701 4.23841 27.5701 4.25083 27.4756C4.29183 27.2722 4.29183 27.2722 4.42302 27.142C4.62356 27.1547 4.76864 27.177 4.93957 27.2844C5.05231 27.4647 5.04271 27.5849 5.01336 27.7929C4.93265 27.9651 4.93265 27.9651 4.75099 28.1184C4.47288 28.1694 4.1969 28.1699 3.91466 28.1713C3.79912 28.1737 3.79912 28.1737 3.68124 28.1762C3.49118 28.18 3.30123 28.1824 3.11114 28.1835C3.10249 28.5834 3.12627 28.8947 3.40862 29.2056C3.50567 29.2994 3.60353 29.3924 3.70148 29.4852C3.70148 29.5282 3.70148 29.5712 3.70148 29.6154C3.63845 29.6382 3.63845 29.6382 3.57414 29.6614C3.06001 29.8766 2.84351 30.1744 2.58638 30.6568C2.3317 30.3533 2.3317 30.3533 2.26251 30.1565C2.20591 29.9946 2.20591 29.9946 2.04933 29.9287C1.98845 29.9112 1.92758 29.8938 1.86485 29.8758C1.74106 29.8395 1.74106 29.8395 1.61477 29.8025C1.54578 29.7838 1.47678 29.765 1.40569 29.7456C1.42619 29.6195 1.42619 29.6195 1.47129 29.4852C1.56869 29.453 1.56869 29.453 1.66807 29.4201C1.7446 29.2954 1.7446 29.2954 1.79926 29.1598C1.8209 29.1168 1.84255 29.0739 1.86485 29.0296C1.8695 28.8859 1.87037 28.7421 1.86895 28.5984C1.86836 28.521 1.86777 28.4437 1.86716 28.364C1.8664 28.3044 1.86564 28.2448 1.86485 28.1835C1.79188 28.185 1.79188 28.185 1.71744 28.1866C1.49737 28.1906 1.27732 28.1932 1.05723 28.1957C0.942379 28.1981 0.942379 28.1981 0.825212 28.2006C0.715185 28.2016 0.715185 28.2016 0.602936 28.2025C0.535266 28.2036 0.467595 28.2046 0.397875 28.2056C0.225002 28.1835 0.225002 28.1835 0.104623 28.0925C-0.0347301 27.9022 -0.00610832 27.6919 0.02822 27.4675C0.106113 27.3332 0.106113 27.3332 0.225002 27.2722C0.473143 27.2722 0.552082 27.3365 0.737455 27.5041C0.784805 27.5565 0.832156 27.6088 0.880942 27.6628C1.20858 27.5245 1.4769 27.3954 1.63937 27.0688C1.76049 26.7254 1.83683 26.3913 1.73366 26.0355C1.54081 25.7862 1.32183 25.584 1.07772 25.3846C1.16627 25.1859 1.21923 25.1161 1.39749 24.9738C1.6187 24.7935 1.78448 24.6203 1.86485 24.3432C1.88925 24.0159 1.88997 23.6946 1.86485 23.3669C1.76663 23.2694 1.66884 23.2802 1.53278 23.2652C1.44755 23.2558 1.36232 23.2464 1.27451 23.2367C1.25286 23.3012 1.23121 23.3656 1.20891 23.432C1.07904 23.4535 0.949159 23.4749 0.815347 23.4971C0.68416 23.3018 0.68416 23.3018 0.700558 23.1309C0.72491 23.0544 0.72491 23.0544 0.749754 22.9764C0.916077 22.8938 1.04796 22.8996 1.23351 22.8909C1.44982 22.8713 1.58007 22.8587 1.77056 22.7526C1.91809 22.4917 1.94912 22.2298 1.99604 21.9349Z" fill="#0071BB"></path><path d="M18.4589 7.28998C18.5022 7.28998 18.5454 7.28998 18.5901 7.28998C18.6918 7.39473 18.6918 7.39473 18.8073 7.53406C19.1084 7.89662 19.3528 8.09047 19.824 8.18495C19.9002 8.20072 19.9764 8.2165 20.0549 8.23275C20.1127 8.24382 20.1704 8.2549 20.2299 8.26631C20.2299 8.09448 20.2299 7.92264 20.2299 7.7456C20.2948 7.7456 20.3598 7.7456 20.4267 7.7456C20.4411 7.78109 20.4554 7.81658 20.4702 7.85315C20.7321 8.47109 21.0035 8.90536 21.5833 9.26832C21.9645 9.52485 22.1072 9.77974 22.1977 10.219C22.2401 10.5645 22.2616 10.9124 22.2633 11.2604C22.2417 11.2819 22.22 11.3034 22.1977 11.3255C21.8146 11.3255 21.6296 11.2063 21.3555 10.9479C21.3087 10.9007 21.262 10.8534 21.2138 10.8048C21.1623 10.7528 21.1108 10.7009 21.0578 10.6474C20.6735 10.2434 20.3471 9.81391 20.0288 9.35807C19.9192 9.1909 19.9192 9.1909 19.8363 9.11246C19.714 9.41865 19.6154 9.69484 19.574 10.0237C19.1074 9.64742 18.8335 9.35079 18.5901 8.78702C18.4385 9.21661 18.287 9.64619 18.1309 10.0888C17.8283 10.0137 17.6681 9.86985 17.4422 9.66979C17.1728 9.42403 17.1728 9.42403 16.8628 9.2373C16.7534 9.17755 16.7534 9.17755 16.7014 9.05449C16.6209 8.57668 16.5833 8.09903 16.5566 7.61542C16.6216 7.61542 16.6865 7.61542 16.7534 7.61542C16.8828 7.76975 16.8828 7.76975 17.0199 7.96934C17.1787 8.22282 17.1787 8.22282 17.4094 8.39649C17.4094 8.05282 17.4094 7.70915 17.4094 7.35507C17.6717 7.42016 17.6717 7.42016 17.8316 7.58288C18.0077 7.7533 18.0881 7.79031 18.3277 7.81069C18.3419 7.71806 18.3419 7.71806 18.3564 7.62356C18.3933 7.42016 18.3933 7.42016 18.4589 7.28998Z" fill="#0071BB"></path><path d="M3.79479 15.9386C4.02846 16.0118 4.02846 16.0118 4.18425 16.203C4.36662 16.5845 4.40466 16.9647 4.27854 17.3665C4.07199 17.7269 3.88747 17.9304 3.50781 18.1109C3.44093 18.1435 3.37405 18.176 3.30514 18.2096C2.60304 18.4989 1.71219 18.4114 1.01114 18.1598C0.661141 17.9737 0.438065 17.7549 0.273209 17.395C0.185563 17.0181 0.166747 16.7222 0.330604 16.3657C0.48639 16.2071 0.48639 16.2071 0.687271 16.1705C0.899712 16.2108 0.946429 16.2384 1.07674 16.4024C1.11312 16.5381 1.11312 16.5381 1.13413 16.6871C1.19283 16.9832 1.28959 17.126 1.53589 17.3136C1.86786 17.5058 2.24744 17.4858 2.61435 17.4112C2.84622 17.3445 3.01699 17.2697 3.20854 17.1224C3.33995 16.8562 3.3419 16.6144 3.34818 16.3205C3.37252 16.142 3.37252 16.142 3.45862 16.021C3.56931 15.9467 3.56931 15.9467 3.79479 15.9386Z" fill="#0071BB"></path><path d="M10.6543 8.75958C10.7839 8.78649 10.9136 8.81254 11.0434 8.83857C11.2806 8.88627 11.5172 8.93587 11.7538 8.98633C11.8248 9.00068 11.8958 9.01504 11.9689 9.02983C12.4489 9.13705 12.4489 9.13705 12.6652 9.34152C12.7595 9.5127 12.8145 9.63272 12.8197 9.82841C12.7184 9.96131 12.655 10.0163 12.4902 10.0542C11.9119 10.0618 11.3673 9.87075 10.8847 9.55585C10.3096 9.26032 9.69338 9.27111 9.08085 9.43788C9.0105 9.46204 8.94015 9.48621 8.86767 9.5111C8.46376 9.63863 8.20088 9.57029 7.82636 9.39313C7.54011 9.2415 7.30328 9.11503 7.11303 8.85208C7.09253 8.66902 7.09253 8.66902 7.11303 8.52664C8.1352 8.0382 9.59862 8.53841 10.6543 8.75958Z" fill="#0071BB"></path><path d="M1.02664 18.3542C1.08363 18.3612 1.14062 18.3682 1.19933 18.3754C1.25599 18.3818 1.31264 18.3883 1.37101 18.3949C1.5355 18.4201 1.5355 18.4201 1.65542 18.4549C1.87374 18.5013 2.09226 18.4945 2.31443 18.4933C2.36001 18.4936 2.40558 18.4938 2.45254 18.4941C2.66142 18.4937 2.85824 18.4834 3.06441 18.4488C3.36938 18.3992 3.58145 18.5152 3.83129 18.6805C3.81082 18.87 3.76828 18.9383 3.63041 19.0751C3.05779 19.4498 2.36276 19.5486 1.69155 19.4315C1.31532 19.3349 0.986939 19.1916 0.748376 18.8757C0.711479 18.6642 0.711479 18.6642 0.748376 18.4852C0.879564 18.355 0.879564 18.355 1.02664 18.3542Z" fill="#0071BB"></path><path d="M0.682852 20.1124C0.792866 20.1411 0.90204 20.173 1.01082 20.206C1.73165 20.3923 2.45708 20.3557 3.17542 20.1775C3.3763 20.2019 3.3763 20.2019 3.50339 20.2426C3.54668 20.3715 3.58998 20.5004 3.63458 20.6331C3.38988 20.9265 3.07363 21.0604 2.69852 21.1075C2.54265 21.1149 2.38853 21.1159 2.23251 21.1132C2.17774 21.1126 2.12298 21.1119 2.06655 21.1113C1.56286 21.0991 1.12375 21.0356 0.70335 20.743C0.551664 20.568 0.551664 20.568 0.555763 20.3565C0.617258 20.1775 0.617258 20.1775 0.682852 20.1124Z" fill="#0071BB"></path><path d="M0.618197 19.2011C0.841183 19.2297 1.00172 19.2958 1.19624 19.4004C1.83444 19.6892 2.6145 19.5515 3.26348 19.3676C3.44027 19.331 3.53333 19.3365 3.70111 19.3964C3.73358 19.5575 3.73358 19.5575 3.76671 19.7218C3.15429 20.1837 2.54748 20.2834 1.77942 20.2265C1.31441 20.1603 0.892366 20.0527 0.548504 19.7218C0.487009 19.5916 0.487009 19.5916 0.503408 19.4533C0.552603 19.3313 0.552603 19.3313 0.618197 19.2011Z" fill="#0071BB"></path><path d="M1.07731 21.1538C1.16673 21.1688 1.16673 21.1688 1.25795 21.1841C1.63224 21.2432 2.00825 21.2089 2.38509 21.1904C2.46123 21.187 2.53738 21.1836 2.61582 21.1801C2.80268 21.1717 2.9895 21.1629 3.17632 21.1538C3.12559 21.5296 3.12559 21.5296 2.99184 21.6623C2.59574 21.8757 2.10119 21.8584 1.6715 21.761C1.51545 21.7143 1.36162 21.6648 1.2085 21.6094C1.2085 21.5665 1.2085 21.5235 1.2085 21.4793C1.16521 21.4793 1.12192 21.4793 1.07731 21.4793C1.04042 21.3531 1.04042 21.3531 1.01172 21.2189C1.03336 21.1974 1.05501 21.1759 1.07731 21.1538Z" fill="#0071BB"></path></svg>